<svg xmlns="http://www.w3.org/2000/svg" xmlns:xlink="http://www.w3.org/1999/xlink" width="530" zoomAndPan="magnify" viewBox="0 0 397.5 82.499998" height="110" preserveAspectRatio="xMidYMid meet" version="1.0"><defs><g/><clipPath id="65c874e055"><path d="M 12.617188 1.28125 L 92.386719 1.28125 L 92.386719 81.050781 L 12.617188 81.050781 Z M 12.617188 1.28125 " clip-rule="nonzero"/></clipPath><clipPath id="6905c78ba6"><path d="M 226 21 L 236 21 L 236 54 L 226 54 Z M 226 21 " clip-rule="nonzero"/></clipPath><clipPath id="43148ce3d4"><path d="M 220.320312 26.597656 L 234.425781 21.773438 L 243.597656 48.574219 L 229.488281 53.402344 Z M 220.320312 26.597656 " clip-rule="nonzero"/></clipPath><clipPath id="bea0c8f67a"><path d="M 220.320312 26.597656 L 234.425781 21.773438 L 243.597656 48.574219 L 229.488281 53.402344 Z M 220.320312 26.597656 " clip-rule="nonzero"/></clipPath><clipPath id="677090187e"><path d="M 226 23 L 232 23 L 232 54 L 226 54 Z M 226 23 " clip-rule="nonzero"/></clipPath><clipPath id="b427b7c0ae"><path d="M 220.320312 26.597656 L 234.425781 21.773438 L 243.597656 48.574219 L 229.488281 53.402344 Z M 220.320312 26.597656 " clip-rule="nonzero"/></clipPath><clipPath id="ccf4206edc"><path d="M 220.320312 26.597656 L 234.425781 21.773438 L 243.597656 48.574219 L 229.488281 53.402344 Z M 220.320312 26.597656 " clip-rule="nonzero"/></clipPath><clipPath id="37df02a7b9"><path d="M 28.601562 5.023438 L 70.324219 5.023438 L 70.324219 76.976562 L 28.601562 76.976562 Z M 28.601562 5.023438 " clip-rule="nonzero"/></clipPath><clipPath id="a13f412a78"><path d="M 28.601562 24.40625 L 28.601562 57.59375 C 28.601562 68.300781 37.277344 76.976562 47.984375 76.976562 L 50.949219 76.976562 C 61.65625 76.976562 70.332031 68.300781 70.332031 57.59375 L 70.332031 24.40625 C 70.332031 19.265625 68.292969 14.335938 64.65625 10.703125 C 61.019531 7.066406 56.089844 5.023438 50.949219 5.023438 L 47.984375 5.023438 C 37.277344 5.023438 28.601562 13.703125 28.601562 24.40625 Z M 28.601562 24.40625 " clip-rule="nonzero"/></clipPath></defs><g clip-path="url(#65c874e055)"><path fill="#000000" d="M 52.5 3.140625 C 57.636719 3.140625 62.613281 4.148438 67.300781 6.128906 C 71.828125 8.042969 75.894531 10.789062 79.390625 14.277344 C 82.882812 17.769531 85.625 21.839844 87.539062 26.367188 C 89.523438 31.054688 90.527344 36.035156 90.527344 41.167969 C 90.527344 46.300781 89.523438 51.28125 87.539062 55.96875 C 85.625 60.496094 82.882812 64.5625 79.390625 68.054688 C 75.898438 71.550781 71.828125 74.289062 67.300781 76.207031 C 62.613281 78.1875 57.636719 79.191406 52.5 79.191406 C 47.367188 79.191406 42.390625 78.1875 37.703125 76.207031 C 33.175781 74.289062 29.109375 71.546875 25.613281 68.054688 C 22.121094 64.5625 19.378906 60.496094 17.464844 55.96875 C 15.480469 51.28125 14.476562 46.300781 14.476562 41.167969 C 14.476562 36.035156 15.480469 31.054688 17.464844 26.367188 C 19.378906 21.839844 22.121094 17.773438 25.613281 14.277344 C 29.105469 10.789062 33.175781 8.042969 37.703125 6.128906 C 42.390625 4.148438 47.367188 3.140625 52.5 3.140625 M 52.5 1.28125 C 30.472656 1.28125 12.617188 19.136719 12.617188 41.164062 C 12.617188 63.195312 30.472656 81.050781 52.5 81.050781 C 74.53125 81.050781 92.386719 63.195312 92.386719 41.164062 C 92.386719 19.136719 74.53125 1.28125 52.5 1.28125 Z M 52.5 1.28125 " fill-opacity="1" fill-rule="nonzero"/></g><path fill="#000000" d="M 52.46875 6.105469 C 57.226562 6.105469 61.839844 7.035156 66.179688 8.871094 C 70.375 10.644531 74.144531 13.1875 77.378906 16.421875 C 80.613281 19.65625 83.152344 23.421875 84.925781 27.617188 C 86.765625 31.960938 87.695312 36.574219 87.695312 41.328125 C 87.695312 46.085938 86.765625 50.699219 84.925781 55.039062 C 83.152344 59.234375 80.613281 63 77.378906 66.238281 C 74.144531 69.472656 70.375 72.011719 66.179688 73.785156 C 61.839844 75.625 57.226562 76.554688 52.46875 76.554688 C 47.714844 76.554688 43.101562 75.625 38.757812 73.785156 C 34.566406 72.011719 30.796875 69.472656 27.5625 66.238281 C 24.328125 63 21.789062 59.234375 20.011719 55.039062 C 18.175781 50.699219 17.246094 46.085938 17.246094 41.328125 C 17.246094 36.574219 18.175781 31.960938 20.011719 27.617188 C 21.789062 23.421875 24.328125 19.65625 27.5625 16.421875 C 30.796875 13.1875 34.566406 10.644531 38.757812 8.871094 C 43.101562 7.035156 47.714844 6.105469 52.46875 6.105469 M 52.46875 5.175781 C 32.503906 5.175781 16.316406 21.359375 16.316406 41.328125 C 16.316406 61.296875 32.503906 77.480469 52.46875 77.480469 C 72.4375 77.480469 88.625 61.296875 88.625 41.328125 C 88.625 21.359375 72.4375 5.175781 52.46875 5.175781 Z M 52.46875 5.175781 " fill-opacity="1" fill-rule="nonzero"/><g fill="#000000" fill-opacity="1"><g transform="translate(98.599094, 53.88405)"><g><path d="M 45.1875 0 L 42.8125 -29.78125 L 42.5 -29.78125 L 32.21875 -0.296875 L 25.390625 -0.296875 L 15.09375 -29.78125 L 14.796875 -29.78125 L 12.421875 0 L 0.96875 0 L 5.484375 -50.234375 L 17.65625 -50.234375 L 28.796875 -21.25 L 39.9375 -50.234375 L 52.125 -50.234375 L 56.625 0 Z M 45.1875 0 "/></g></g></g><g fill="#000000" fill-opacity="1"><g transform="translate(151.02467, 53.88405)"><g><path d="M 5.78125 -3.859375 C 2.863281 -7.046875 1.40625 -10.953125 1.40625 -15.578125 C 1.40625 -20.210938 2.863281 -24.132812 5.78125 -27.34375 C 8.707031 -30.550781 12.421875 -32.15625 16.921875 -32.15625 C 21.066406 -32.15625 24.476562 -30.851562 27.15625 -28.25 L 27.15625 -31.234375 L 37.9375 -31.234375 L 37.9375 0 L 27.28125 0 L 27.28125 -3.53125 L 27.15625 -3.53125 C 24.476562 -0.570312 21.066406 0.90625 16.921875 0.90625 C 12.421875 0.90625 8.707031 -0.679688 5.78125 -3.859375 Z M 14.9375 -20.875 C 13.539062 -19.5 12.84375 -17.734375 12.84375 -15.578125 C 12.84375 -13.429688 13.507812 -11.675781 14.84375 -10.3125 C 16.1875 -8.957031 17.957031 -8.28125 20.15625 -8.28125 C 22.269531 -8.28125 24.003906 -8.96875 25.359375 -10.34375 C 26.722656 -11.726562 27.40625 -13.476562 27.40625 -15.59375 C 27.40625 -17.738281 26.703125 -19.5 25.296875 -20.875 C 23.898438 -22.257812 22.1875 -22.953125 20.15625 -22.953125 C 18.082031 -22.953125 16.34375 -22.257812 14.9375 -20.875 Z M 14.9375 -20.875 "/></g></g></g><g fill="#000000" fill-opacity="1"><g transform="translate(187.436197, 53.88405)"><g><path d="M 39.828125 0 L 26.796875 0 L 19.90625 -8.828125 L 13.03125 0 L 0 0 L 13.328125 -16.3125 L 1.890625 -31.234375 L 14.484375 -31.234375 L 19.90625 -23.984375 L 25.328125 -31.234375 L 37.9375 -31.234375 L 26.484375 -16.3125 Z M 39.828125 0 "/></g></g></g><g fill="#000000" fill-opacity="1"><g transform="translate(222.081923, 53.88405)"><g><path d="M 4.6875 -48.65625 C 5.945312 -49.914062 7.445312 -50.546875 9.1875 -50.546875 C 10.9375 -50.546875 12.441406 -49.914062 13.703125 -48.65625 C 14.960938 -47.394531 15.59375 -45.890625 15.59375 -44.140625 C 15.59375 -42.398438 14.960938 -40.898438 13.703125 -39.640625 C 12.441406 -38.378906 10.9375 -37.75 9.1875 -37.75 C 7.445312 -37.75 5.945312 -38.378906 4.6875 -39.640625 C 3.425781 -40.898438 2.796875 -42.398438 2.796875 -44.140625 C 2.796875 -45.890625 3.425781 -47.394531 4.6875 -48.65625 Z M 3.65625 -31.234375 L 3.65625 0 L 14.4375 0 L 14.4375 -31.234375 Z M 3.65625 -31.234375 "/></g></g></g><g fill="#000000" fill-opacity="1"><g transform="translate(235.294386, 53.88405)"><g><path d="M 3.65625 0 L 3.65625 -31.234375 L 14.4375 -31.234375 L 14.4375 -27.953125 L 14.546875 -27.953125 C 17.347656 -30.753906 20.332031 -32.15625 23.5 -32.15625 C 25.769531 -32.15625 27.898438 -31.6875 29.890625 -30.75 C 31.878906 -29.8125 33.382812 -28.367188 34.40625 -26.421875 C 37.570312 -30.242188 41.019531 -32.15625 44.75 -32.15625 C 48.082031 -32.15625 50.945312 -31.21875 53.34375 -29.34375 C 55.738281 -27.476562 56.9375 -24.554688 56.9375 -20.578125 L 56.9375 0 L 46.15625 0 L 46.15625 -17.65625 C 46.15625 -19.320312 45.695312 -20.710938 44.78125 -21.828125 C 43.875 -22.941406 42.503906 -23.5 40.671875 -23.5 C 39.085938 -23.5 37.878906 -23.019531 37.046875 -22.0625 C 36.210938 -21.113281 35.757812 -19.96875 35.6875 -18.625 L 35.6875 0 L 24.90625 0 L 24.90625 -17.65625 C 24.90625 -19.320312 24.445312 -20.710938 23.53125 -21.828125 C 22.625 -22.941406 21.253906 -23.5 19.421875 -23.5 C 17.753906 -23.5 16.503906 -22.976562 15.671875 -21.9375 C 14.847656 -20.90625 14.4375 -19.679688 14.4375 -18.265625 L 14.4375 0 Z M 3.65625 0 "/></g></g></g><g fill="#000000" fill-opacity="1"><g transform="translate(290.094672, 53.88405)"><g><path d="M 13.828125 -31.234375 L 13.828125 -16.375 C 13.828125 -13.289062 14.289062 -11.097656 15.21875 -9.796875 C 16.15625 -8.503906 17.738281 -7.859375 19.96875 -7.859375 C 22.207031 -7.859375 23.789062 -8.503906 24.71875 -9.796875 C 25.65625 -11.097656 26.125 -13.289062 26.125 -16.375 L 26.125 -31.234375 L 36.90625 -31.234375 L 36.90625 -13.765625 C 36.90625 -8.566406 35.550781 -4.820312 32.84375 -2.53125 C 30.144531 -0.238281 25.851562 0.90625 19.96875 0.90625 C 14.082031 0.90625 9.789062 -0.238281 7.09375 -2.53125 C 4.394531 -4.820312 3.046875 -8.566406 3.046875 -13.765625 L 3.046875 -31.234375 Z M 13.828125 -31.234375 "/></g></g></g><g fill="#000000" fill-opacity="1"><g transform="translate(324.86217, 53.88405)"><g><path d="M 3.65625 0 L 3.65625 -31.234375 L 14.4375 -31.234375 L 14.4375 -27.953125 L 14.546875 -27.953125 C 17.347656 -30.753906 20.332031 -32.15625 23.5 -32.15625 C 25.769531 -32.15625 27.898438 -31.6875 29.890625 -30.75 C 31.878906 -29.8125 33.382812 -28.367188 34.40625 -26.421875 C 37.570312 -30.242188 41.019531 -32.15625 44.75 -32.15625 C 48.082031 -32.15625 50.945312 -31.21875 53.34375 -29.34375 C 55.738281 -27.476562 56.9375 -24.554688 56.9375 -20.578125 L 56.9375 0 L 46.15625 0 L 46.15625 -17.65625 C 46.15625 -19.320312 45.695312 -20.710938 44.78125 -21.828125 C 43.875 -22.941406 42.503906 -23.5 40.671875 -23.5 C 39.085938 -23.5 37.878906 -23.019531 37.046875 -22.0625 C 36.210938 -21.113281 35.757812 -19.96875 35.6875 -18.625 L 35.6875 0 L 24.90625 0 L 24.90625 -17.65625 C 24.90625 -19.320312 24.445312 -20.710938 23.53125 -21.828125 C 22.625 -22.941406 21.253906 -23.5 19.421875 -23.5 C 17.753906 -23.5 16.503906 -22.976562 15.671875 -21.9375 C 14.847656 -20.90625 14.4375 -19.679688 14.4375 -18.265625 L 14.4375 0 Z M 3.65625 0 "/></g></g></g><g clip-path="url(#6905c78ba6)"><g clip-path="url(#43148ce3d4)"><g clip-path="url(#bea0c8f67a)"><path fill="#ffffff" d="M 227.167969 24.253906 L 234.128906 21.875 L 231.808594 33.121094 L 235.890625 31.722656 L 229.605469 53.730469 L 230.410156 38.054688 L 226.042969 39.792969 Z M 227.167969 24.253906 " fill-opacity="1" fill-rule="nonzero"/></g></g></g><g clip-path="url(#677090187e)"><g clip-path="url(#b427b7c0ae)"><g clip-path="url(#ccf4206edc)"><path fill="#000000" d="M 227.167969 24.253906 L 228.367188 23.84375 L 226.042969 39.792969 Z M 229.605469 53.730469 L 231.25 37.765625 L 230.410156 38.054688 Z M 229.605469 53.730469 " fill-opacity="1" fill-rule="nonzero"/></g></g></g><g clip-path="url(#37df02a7b9)"><g clip-path="url(#a13f412a78)"><path fill="#db4a2b" d="M 57.960938 76.972656 L 31.175781 76.972656 L 42.507812 55.851562 L 28.601562 55.851562 L 62.253906 5.027344 L 53.324219 42.460938 L 70.324219 42.460938 L 57.960938 76.972656 " fill-opacity="1" fill-rule="nonzero"/></g></g><g fill="#db4a2b" fill-opacity="1"><g transform="translate(183.779454, 73.246099)"><g><path d="M 8.359375 -14.5 C 10.253906 -14.5 11.859375 -14.128906 13.171875 -13.390625 C 14.492188 -12.648438 15.15625 -11.5 15.15625 -9.9375 L 10.171875 -9.9375 C 10.171875 -10.457031 9.941406 -10.828125 9.484375 -11.046875 C 9.160156 -11.222656 8.753906 -11.3125 8.265625 -11.3125 C 6.984375 -11.3125 6.34375 -11.003906 6.34375 -10.390625 C 6.34375 -10.054688 6.566406 -9.816406 7.015625 -9.671875 C 7.460938 -9.523438 8.195312 -9.375 9.21875 -9.21875 C 10.46875 -9.03125 11.515625 -8.816406 12.359375 -8.578125 C 13.203125 -8.335938 13.9375 -7.90625 14.5625 -7.28125 C 15.1875 -6.664062 15.5 -5.804688 15.5 -4.703125 C 15.5 -2.890625 14.820312 -1.597656 13.46875 -0.828125 C 12.113281 -0.0546875 10.347656 0.328125 8.171875 0.328125 C 6.910156 0.328125 5.722656 0.15625 4.609375 -0.1875 C 3.503906 -0.539062 2.601562 -1.082031 1.90625 -1.8125 C 1.207031 -2.550781 0.859375 -3.488281 0.859375 -4.625 L 5.828125 -4.625 L 5.828125 -4.515625 C 5.847656 -3.898438 6.101562 -3.472656 6.59375 -3.234375 C 7.082031 -2.992188 7.609375 -2.875 8.171875 -2.875 C 9.648438 -2.875 10.390625 -3.222656 10.390625 -3.921875 C 10.390625 -4.273438 10.15625 -4.53125 9.6875 -4.6875 C 9.226562 -4.851562 8.46875 -5.023438 7.40625 -5.203125 C 6.132812 -5.421875 5.09375 -5.65625 4.28125 -5.90625 C 3.46875 -6.15625 2.753906 -6.578125 2.140625 -7.171875 C 1.535156 -7.773438 1.234375 -8.617188 1.234375 -9.703125 C 1.234375 -11.429688 1.890625 -12.660156 3.203125 -13.390625 C 4.523438 -14.128906 6.242188 -14.5 8.359375 -14.5 Z M 8.359375 -14.5 "/></g></g></g><g fill="#db4a2b" fill-opacity="1"><g transform="translate(198.652983, 73.246099)"><g><path d="M 11.0625 -14.1875 L 11.0625 -10.5625 L 8.0625 -10.5625 L 8.0625 -5.15625 C 8.0625 -4.507812 8.164062 -4.035156 8.375 -3.734375 C 8.59375 -3.441406 8.988281 -3.296875 9.5625 -3.296875 L 11.0625 -3.296875 L 11.0625 -0.15625 C 10.632812 -0.0195312 10.078125 0.09375 9.390625 0.1875 C 8.710938 0.28125 8.125 0.328125 7.625 0.328125 C 6.050781 0.328125 4.835938 0.0390625 3.984375 -0.53125 C 3.140625 -1.101562 2.71875 -2.082031 2.71875 -3.46875 L 2.71875 -10.5625 L 0.71875 -10.5625 L 0.71875 -14.1875 L 2.921875 -14.1875 L 4.078125 -18.484375 L 8.0625 -18.484375 L 8.0625 -14.1875 Z M 11.0625 -14.1875 "/></g></g></g><g fill="#db4a2b" fill-opacity="1"><g transform="translate(209.042745, 73.246099)"><g><path d="M 10.234375 -14.53125 C 10.640625 -14.53125 11.003906 -14.476562 11.328125 -14.375 C 11.648438 -14.28125 11.8125 -14.222656 11.8125 -14.203125 L 11.8125 -9.71875 L 10.09375 -9.71875 C 8.988281 -9.71875 8.1875 -9.429688 7.6875 -8.859375 C 7.195312 -8.285156 6.953125 -7.4375 6.953125 -6.3125 L 6.953125 0 L 1.609375 0 L 1.609375 -14.1875 L 5.984375 -14.1875 L 6.34375 -12.03125 C 6.664062 -12.851562 7.175781 -13.472656 7.875 -13.890625 C 8.570312 -14.316406 9.359375 -14.53125 10.234375 -14.53125 Z M 10.234375 -14.53125 "/></g></g></g><g fill="#db4a2b" fill-opacity="1"><g transform="translate(219.43251, 73.246099)"><g><path d="M 11.90625 0 L 11.546875 -2.15625 C 10.992188 -1.382812 10.265625 -0.773438 9.359375 -0.328125 C 8.453125 0.109375 7.5 0.328125 6.5 0.328125 C 4.851562 0.328125 3.617188 -0.128906 2.796875 -1.046875 C 1.972656 -1.960938 1.5625 -3.28125 1.5625 -5 L 1.5625 -14.1875 L 6.90625 -14.1875 L 6.90625 -5.640625 C 6.90625 -5.035156 7.0625 -4.546875 7.375 -4.171875 C 7.6875 -3.804688 8.128906 -3.625 8.703125 -3.625 C 9.367188 -3.625 9.90625 -3.835938 10.3125 -4.265625 C 10.726562 -4.703125 10.9375 -5.234375 10.9375 -5.859375 L 10.9375 -14.1875 L 16.28125 -14.1875 L 16.28125 0 Z M 11.90625 0 "/></g></g></g><g fill="#db4a2b" fill-opacity="1"><g transform="translate(235.80957, 73.246099)"><g><path d="M 17.5625 -16.84375 C 17.5625 -15.75 17.285156 -14.90625 16.734375 -14.3125 C 16.191406 -13.71875 15.378906 -13.28125 14.296875 -13 C 14.804688 -12.601562 15.207031 -12.140625 15.5 -11.609375 C 15.800781 -11.085938 15.953125 -10.53125 15.953125 -9.9375 C 15.953125 -8.4375 15.382812 -7.300781 14.25 -6.53125 C 13.113281 -5.757812 11.691406 -5.375 9.984375 -5.375 L 7.953125 -5.375 C 6.828125 -5.375 6.265625 -5.113281 6.265625 -4.59375 C 6.265625 -4.34375 6.390625 -4.140625 6.640625 -3.984375 C 6.890625 -3.835938 7.328125 -3.765625 7.953125 -3.765625 L 12.78125 -3.765625 C 14.363281 -3.765625 15.554688 -3.351562 16.359375 -2.53125 C 17.160156 -1.707031 17.5625 -0.601562 17.5625 0.78125 C 17.5625 1.800781 17.289062 2.675781 16.75 3.40625 C 16.21875 4.144531 15.492188 4.703125 14.578125 5.078125 C 13.671875 5.453125 12.679688 5.640625 11.609375 5.640625 L 3.703125 5.640625 C 3.054688 5.640625 2.457031 5.488281 1.90625 5.1875 C 1.363281 4.882812 0.929688 4.46875 0.609375 3.9375 C 0.296875 3.40625 0.140625 2.816406 0.140625 2.171875 C 0.140625 1.472656 0.351562 0.84375 0.78125 0.28125 C 1.207031 -0.28125 1.742188 -0.707031 2.390625 -1 C 1.960938 -1.300781 1.625 -1.664062 1.375 -2.09375 C 1.125 -2.519531 1 -2.984375 1 -3.484375 C 1 -4.191406 1.253906 -4.828125 1.765625 -5.390625 C 2.285156 -5.953125 2.929688 -6.332031 3.703125 -6.53125 C 3.003906 -6.976562 2.445312 -7.488281 2.03125 -8.0625 C 1.625 -8.644531 1.421875 -9.257812 1.421875 -9.90625 C 1.421875 -11.550781 2.085938 -12.726562 3.421875 -13.4375 C 4.753906 -14.144531 6.523438 -14.5 8.734375 -14.5 C 9.691406 -14.5 10.46875 -14.445312 11.0625 -14.34375 C 11.9375 -14.894531 12.503906 -15.398438 12.765625 -15.859375 C 13.023438 -16.316406 13.15625 -16.644531 13.15625 -16.84375 Z M 8.671875 -11.703125 C 8.085938 -11.703125 7.601562 -11.550781 7.21875 -11.25 C 6.84375 -10.945312 6.65625 -10.507812 6.65625 -9.9375 C 6.65625 -9.34375 6.828125 -8.898438 7.171875 -8.609375 C 7.523438 -8.316406 8.023438 -8.171875 8.671875 -8.171875 C 9.316406 -8.171875 9.820312 -8.316406 10.1875 -8.609375 C 10.5625 -8.898438 10.75 -9.34375 10.75 -9.9375 C 10.75 -10.53125 10.5625 -10.972656 10.1875 -11.265625 C 9.820312 -11.554688 9.316406 -11.703125 8.671875 -11.703125 Z M 6.609375 0 C 6.191406 0 5.851562 0.109375 5.59375 0.328125 C 5.332031 0.554688 5.203125 0.878906 5.203125 1.296875 C 5.203125 1.703125 5.335938 2.03125 5.609375 2.28125 C 5.878906 2.53125 6.210938 2.65625 6.609375 2.65625 L 10.796875 2.65625 C 11.191406 2.65625 11.523438 2.535156 11.796875 2.296875 C 12.078125 2.054688 12.21875 1.726562 12.21875 1.3125 C 12.21875 0.90625 12.082031 0.582031 11.8125 0.34375 C 11.550781 0.113281 11.210938 0 10.796875 0 Z M 6.609375 0 "/></g></g></g><g fill="#db4a2b" fill-opacity="1"><g transform="translate(252.18663, 73.246099)"><g><path d="M 17.5625 -16.84375 C 17.5625 -15.75 17.285156 -14.90625 16.734375 -14.3125 C 16.191406 -13.71875 15.378906 -13.28125 14.296875 -13 C 14.804688 -12.601562 15.207031 -12.140625 15.5 -11.609375 C 15.800781 -11.085938 15.953125 -10.53125 15.953125 -9.9375 C 15.953125 -8.4375 15.382812 -7.300781 14.25 -6.53125 C 13.113281 -5.757812 11.691406 -5.375 9.984375 -5.375 L 7.953125 -5.375 C 6.828125 -5.375 6.265625 -5.113281 6.265625 -4.59375 C 6.265625 -4.34375 6.390625 -4.140625 6.640625 -3.984375 C 6.890625 -3.835938 7.328125 -3.765625 7.953125 -3.765625 L 12.78125 -3.765625 C 14.363281 -3.765625 15.554688 -3.351562 16.359375 -2.53125 C 17.160156 -1.707031 17.5625 -0.601562 17.5625 0.78125 C 17.5625 1.800781 17.289062 2.675781 16.75 3.40625 C 16.21875 4.144531 15.492188 4.703125 14.578125 5.078125 C 13.671875 5.453125 12.679688 5.640625 11.609375 5.640625 L 3.703125 5.640625 C 3.054688 5.640625 2.457031 5.488281 1.90625 5.1875 C 1.363281 4.882812 0.929688 4.46875 0.609375 3.9375 C 0.296875 3.40625 0.140625 2.816406 0.140625 2.171875 C 0.140625 1.472656 0.351562 0.84375 0.78125 0.28125 C 1.207031 -0.28125 1.742188 -0.707031 2.390625 -1 C 1.960938 -1.300781 1.625 -1.664062 1.375 -2.09375 C 1.125 -2.519531 1 -2.984375 1 -3.484375 C 1 -4.191406 1.253906 -4.828125 1.765625 -5.390625 C 2.285156 -5.953125 2.929688 -6.332031 3.703125 -6.53125 C 3.003906 -6.976562 2.445312 -7.488281 2.03125 -8.0625 C 1.625 -8.644531 1.421875 -9.257812 1.421875 -9.90625 C 1.421875 -11.550781 2.085938 -12.726562 3.421875 -13.4375 C 4.753906 -14.144531 6.523438 -14.5 8.734375 -14.5 C 9.691406 -14.5 10.46875 -14.445312 11.0625 -14.34375 C 11.9375 -14.894531 12.503906 -15.398438 12.765625 -15.859375 C 13.023438 -16.316406 13.15625 -16.644531 13.15625 -16.84375 Z M 8.671875 -11.703125 C 8.085938 -11.703125 7.601562 -11.550781 7.21875 -11.25 C 6.84375 -10.945312 6.65625 -10.507812 6.65625 -9.9375 C 6.65625 -9.34375 6.828125 -8.898438 7.171875 -8.609375 C 7.523438 -8.316406 8.023438 -8.171875 8.671875 -8.171875 C 9.316406 -8.171875 9.820312 -8.316406 10.1875 -8.609375 C 10.5625 -8.898438 10.75 -9.34375 10.75 -9.9375 C 10.75 -10.53125 10.5625 -10.972656 10.1875 -11.265625 C 9.820312 -11.554688 9.316406 -11.703125 8.671875 -11.703125 Z M 6.609375 0 C 6.191406 0 5.851562 0.109375 5.59375 0.328125 C 5.332031 0.554688 5.203125 0.878906 5.203125 1.296875 C 5.203125 1.703125 5.335938 2.03125 5.609375 2.28125 C 5.878906 2.53125 6.210938 2.65625 6.609375 2.65625 L 10.796875 2.65625 C 11.191406 2.65625 11.523438 2.535156 11.796875 2.296875 C 12.078125 2.054688 12.21875 1.726562 12.21875 1.3125 C 12.21875 0.90625 12.082031 0.582031 11.8125 0.34375 C 11.550781 0.113281 11.210938 0 10.796875 0 Z M 6.609375 0 "/></g></g></g><g fill="#db4a2b" fill-opacity="1"><g transform="translate(268.563691, 73.246099)"><g><path d="M 1.796875 0 L 1.796875 -19.46875 L 7.140625 -19.46875 L 7.140625 0 Z M 1.796875 0 "/></g></g></g><g fill="#db4a2b" fill-opacity="1"><g transform="translate(275.973219, 73.246099)"><g><path d="M 8.9375 -14.5 C 11.539062 -14.5 13.523438 -13.890625 14.890625 -12.671875 C 16.265625 -11.453125 16.953125 -9.59375 16.953125 -7.09375 L 16.953125 -6.171875 L 6.3125 -6.171875 C 6.3125 -5.148438 6.539062 -4.378906 7 -3.859375 C 7.457031 -3.347656 8.175781 -3.09375 9.15625 -3.09375 C 10.050781 -3.09375 10.707031 -3.28125 11.125 -3.65625 C 11.550781 -4.03125 11.765625 -4.53125 11.765625 -5.15625 L 16.953125 -5.15625 C 16.953125 -3.4375 16.296875 -2.09375 14.984375 -1.125 C 13.679688 -0.15625 11.773438 0.328125 9.265625 0.328125 C 6.628906 0.328125 4.585938 -0.285156 3.140625 -1.515625 C 1.691406 -2.742188 0.96875 -4.601562 0.96875 -7.09375 C 0.96875 -9.53125 1.671875 -11.375 3.078125 -12.625 C 4.492188 -13.875 6.445312 -14.5 8.9375 -14.5 Z M 9.15625 -11.09375 C 7.476562 -11.09375 6.539062 -10.296875 6.34375 -8.703125 L 11.546875 -8.703125 C 11.546875 -9.429688 11.332031 -10.007812 10.90625 -10.4375 C 10.488281 -10.875 9.90625 -11.09375 9.15625 -11.09375 Z M 9.15625 -11.09375 "/></g></g></g></svg>